<svg width="24" height="24" viewBox="0 0 24 24" fill="none" xmlns="http://www.w3.org/2000/svg">
<path d="M1.4191 20.0684L2.95893 20.7168V10.2611L0.166547 17.0463C-0.304596 18.2274 0.258477 19.5821 1.4191 20.0684ZM23.8271 15.7842L18.1275 1.92421C17.7712 1.05579 16.9324 0.523158 16.0475 0.5C15.7488 0.5 15.4385 0.546316 15.1397 0.673684L6.67062 4.20526C5.80878 4.56421 5.28018 5.39789 5.25719 6.28947C5.2457 6.60211 5.30316 6.91474 5.42956 7.21579L11.1292 21.0758C11.4855 21.9558 12.3358 22.4884 13.2322 22.5C13.5309 22.5 13.8297 22.4421 14.117 22.3263L22.5746 18.7947C23.7467 18.3084 24.3098 16.9537 23.8271 15.7842ZM7.56695 7.44737C6.93492 7.44737 6.41782 6.92632 6.41782 6.28947C6.41782 5.65263 6.93492 5.13158 7.56695 5.13158C8.19897 5.13158 8.71607 5.65263 8.71607 6.28947C8.71607 6.92632 8.19897 7.44737 7.56695 7.44737ZM5.26868 20.1842C5.26868 21.4579 6.3029 22.5 7.56695 22.5H9.23318L5.26868 12.8432V20.1842Z" fill="#36689E"/>
</svg>
