<svg width="134" height="134" viewBox="0 0 134 134" fill="none" xmlns="http://www.w3.org/2000/svg">
<g filter="url(#filter0_d_47_382)">
<circle cx="62" cy="60" r="50" fill="white"/>
</g>
<path fill-rule="evenodd" clip-rule="evenodd" d="M57.5883 43.3645L48.3733 48.722H41.1327C36.7759 48.722 33.6365 48.7703 33.2502 48.8434C32.3809 49.0078 31.7399 49.4864 31.3328 50.2748L31 50.9194V59.3304V67.7415L31.3328 68.386C31.7399 69.1744 32.3809 69.653 33.2502 69.8175C33.6243 69.8882 36.2705 69.9389 39.5947 69.9389H45.2975V75.0622V80.1856H38.3917H31.4859L31.2429 80.4495C30.7986 80.932 30.9921 81.6183 31.643 81.8686C32.0984 82.0438 90.9042 82.0438 91.3595 81.8686C92.0104 81.6183 92.2039 80.932 91.7596 80.4495C91.5234 80.1929 91.4419 80.1856 88.781 80.1856H86.0453V68.1306C86.0453 61.5003 86.0678 56.0756 86.0954 56.0756C86.123 56.0756 86.6563 56.3739 87.2806 56.7386C88.5794 57.4973 88.9977 57.5664 89.3727 57.084C89.6068 56.7828 89.6197 56.6172 89.6197 53.9028C89.6197 51.3506 89.597 51.0121 89.4111 50.7906C89.2965 50.6541 87.9427 49.8142 86.4027 48.9243C84.8628 48.0345 79.9927 45.211 75.5804 42.6498C69.505 39.1233 67.4663 37.9947 67.1806 38C66.9082 38.0051 64.2387 39.4981 57.5883 43.3645ZM77.528 45.872L87.7729 51.8222L87.8061 53.3974L87.8393 54.9728L82.385 51.8085C79.385 50.0681 74.8125 47.4139 72.2237 45.9104C69.4243 44.2845 67.3922 43.1767 67.2095 43.1767C67.0269 43.1767 64.9229 44.3242 62.0156 46.0096L57.1288 48.8426H54.5294C53.0996 48.8426 51.9682 48.8018 52.0149 48.7521C52.1493 48.6092 67.0277 39.9477 67.1624 39.9341C67.2289 39.9274 71.8934 42.5994 77.528 45.872ZM75.7392 50.0282L84.1985 54.9437V67.5346V80.1254H79.1944H74.1903L74.1597 72.2072L74.1291 64.2891L73.8159 64.04C73.5149 63.8003 73.3621 63.7908 69.8254 63.7908H66.148V57.3551V50.9194L65.8152 50.2748C65.6076 49.873 65.2899 49.4933 64.9714 49.2665C64.4696 48.9093 64.4282 48.9017 62.6532 48.8426L60.846 48.7823L64.0033 46.9473C65.7399 45.938 67.1875 45.1124 67.2203 45.1124C67.253 45.1125 71.0865 47.3246 75.7392 50.0282ZM64.1178 50.9147C64.3574 51.1748 64.3608 51.2906 64.357 59.3231C64.3528 68.2479 64.3908 67.7939 63.6303 68.0146C63.0894 68.1716 34.0586 68.1716 33.5177 68.0146C32.7572 67.7939 32.7952 68.2479 32.791 59.3231C32.7872 51.2906 32.7905 51.1748 33.0301 50.9147L33.2731 50.6508H48.574H63.8749L64.1178 50.9147ZM37.3963 55.2338C35.4773 55.8166 35.1415 58.7751 36.8716 59.8572C37.3375 60.1487 37.6042 60.218 38.5092 60.2828C39.6633 60.3654 39.8115 60.4501 39.815 61.0296C39.8184 61.6374 39.5333 61.7414 37.8635 61.7414C37.0288 61.7414 36.2478 61.7946 36.1279 61.8595C35.5586 62.1677 35.6675 63.3391 36.2799 63.4946C36.4398 63.5352 37.3145 63.5507 38.2236 63.529C40.146 63.483 40.5937 63.3235 41.187 62.4738C41.5106 62.0103 41.5444 61.8725 41.5444 61.0181C41.5444 60.1642 41.5104 60.0258 41.187 59.561C40.6541 58.7955 39.9858 58.4866 38.8634 58.4866C37.9119 58.4866 37.7027 58.3872 37.512 57.845C37.4321 57.6179 37.609 57.167 37.839 57.0116C37.911 56.9629 38.6704 56.9223 39.5262 56.9212C40.9263 56.9197 41.1087 56.8947 41.3432 56.6736C41.5133 56.5133 41.604 56.2845 41.604 56.0153C41.604 55.7461 41.5133 55.5173 41.3432 55.357C41.1052 55.1326 40.9364 55.112 39.407 55.1215C38.4857 55.1272 37.5808 55.1777 37.3963 55.2338ZM44.7239 55.3221C44.572 55.4543 44.0052 56.8673 43.2073 59.1034C42.0073 62.4661 41.9427 62.6938 42.0965 63.0185C42.3144 63.4787 42.8276 63.6613 43.2385 63.4252C43.5768 63.2308 43.6647 63.1049 43.9302 62.4346L44.1092 61.9825H45.2829H46.4565L46.6642 62.5551C47.0176 63.5296 47.5733 63.799 48.2005 63.2998C48.399 63.1419 48.5144 62.9321 48.5144 62.7297C48.5144 62.5535 47.9743 60.8894 47.3141 59.0315C46.0687 55.5265 45.8495 55.1112 45.2445 55.1112C45.0916 55.1112 44.8574 55.206 44.7239 55.3221ZM49.1643 55.4071L48.8718 55.7029V59.3304V62.9579L49.1643 63.2537C49.4552 63.5481 49.4691 63.5497 51.829 63.5497C54.0486 63.5497 54.2215 63.5337 54.5152 63.2998C54.9493 62.9543 54.9493 62.3368 54.5152 61.9913C54.2296 61.764 54.0416 61.7414 52.4301 61.7414H50.659V58.6762V55.6109L50.3451 55.3611C49.9287 55.0296 49.5217 55.0455 49.1643 55.4071ZM55.803 55.3901C55.5488 55.664 55.544 55.7368 55.544 59.3473V63.0254L55.8197 63.2876C56.0842 63.5388 56.1933 63.5496 58.4707 63.5458C61.0047 63.5417 61.1473 63.5115 61.3651 62.9319C61.4994 62.5747 61.2723 61.9377 60.9686 61.8198C60.8577 61.7766 59.9939 61.7414 59.049 61.7414H57.3312V61.0292V60.3169L59.1153 60.2758C60.7642 60.2377 60.9191 60.2145 61.1606 59.9701C61.4814 59.6452 61.5022 59.0617 61.2048 58.7292C61.0053 58.5061 60.8404 58.4866 59.1595 58.4866H57.3312V57.703V56.9194L59.0886 56.9156C60.9627 56.9115 61.1555 56.8595 61.3651 56.3016C61.4994 55.9444 61.2723 55.3074 60.9686 55.1895C60.8577 55.1464 59.7084 55.1112 58.4146 55.1112C56.1096 55.1112 56.0569 55.1168 55.803 55.3901ZM45.5795 59.5026C45.6865 59.8294 45.7741 60.1141 45.7741 60.1355C45.7741 60.1568 45.5596 60.1743 45.2975 60.1743C45.0354 60.1743 44.8209 60.1384 44.8209 60.0945C44.8209 59.8394 45.2365 58.7399 45.3039 58.8165C45.3485 58.8672 45.4725 59.1759 45.5795 59.5026ZM72.3435 72.8923V80.1856H67.2203H62.097V75.0622V69.9389H62.6765C64.2876 69.9389 65.2624 69.4567 65.8152 68.386C66.1067 67.8213 66.148 67.6086 66.148 66.6703V65.599H69.2457H72.3435V72.8923ZM50.0633 75.0622V80.1856H48.574H47.0847V75.0622V69.9389H48.574H50.0633V75.0622ZM60.2813 75.0321L60.2503 80.1254L56.0504 80.1571L51.8505 80.1888V75.0638V69.9389H56.0815H60.3124L60.2813 75.0321ZM70.0363 71.5148C69.739 71.7513 69.7223 71.8217 69.7223 72.8409C69.7223 74.086 69.8982 74.3992 70.5975 74.3992C71.189 74.3992 71.4298 74.0582 71.4876 73.1385C71.547 72.194 71.3642 71.5876 70.9643 71.4032C70.5459 71.2103 70.3962 71.2283 70.0363 71.5148Z" fill="#36689E"/>
<defs>
<filter id="filter0_d_47_382" x="0" y="0" width="134" height="134" filterUnits="userSpaceOnUse" color-interpolation-filters="sRGB">
<feFlood flood-opacity="0" result="BackgroundImageFix"/>
<feColorMatrix in="SourceAlpha" type="matrix" values="0 0 0 0 0 0 0 0 0 0 0 0 0 0 0 0 0 0 127 0" result="hardAlpha"/>
<feMorphology radius="1" operator="dilate" in="SourceAlpha" result="effect1_dropShadow_47_382"/>
<feOffset dx="5" dy="7"/>
<feGaussianBlur stdDeviation="8"/>
<feComposite in2="hardAlpha" operator="out"/>
<feColorMatrix type="matrix" values="0 0 0 0 0.525 0 0 0 0 0.525 0 0 0 0 0.525 0 0 0 0.16 0"/>
<feBlend mode="normal" in2="BackgroundImageFix" result="effect1_dropShadow_47_382"/>
<feBlend mode="normal" in="SourceGraphic" in2="effect1_dropShadow_47_382" result="shape"/>
</filter>
</defs>
</svg>
